<svg width="659" height="534" viewBox="0 0 659 534" fill="none" xmlns="http://www.w3.org/2000/svg">
<g filter="url(#filter0_d_623_1003)">
<g clip-path="url(#clip0_623_1003)">
<rect x="0.755676" y="184.133" width="556.548" height="366.281" rx="42.7566" transform="rotate(-19.3704 0.755676 184.133)" fill="#C5D87A"/>
<path d="M227.373 364.814C165.8 389.576 72.5692 388.395 72.5692 388.395L107.351 487.328L632.396 302.735L566.608 115.612C566.608 115.612 497.947 128.403 461.965 193.963C432.768 247.16 367.316 293.101 278.574 342.942C256.35 352.798 264.722 349.794 227.373 364.814Z" fill="#EFB863"/>
<path d="M558.47 92.4636C558.47 92.4636 473.757 85.551 417.418 151.796C393.86 179.497 372.489 215.979 341.754 264.454C311.02 312.929 266.464 349.053 266.464 349.053C266.464 349.053 344.778 309.405 399.52 264.505C454.263 219.604 465.223 186.433 490.071 157.888C514.92 129.342 567.517 118.196 567.517 118.196L558.47 92.4636Z" fill="#86C7D3"/>
<rect x="88.2068" y="432.874" width="556.548" height="102.616" rx="42.7566" transform="rotate(-19.3704 88.2068 432.874)" fill="#F1B863"/>
<path d="M130.139 279.828L134.932 278.143C136.664 277.534 137.582 277.28 138.657 277.076L137.744 274.479C136.778 274.992 135.965 275.347 134.171 275.978L122.111 280.218C120.472 280.794 119.646 281.015 118.509 281.241L119.422 283.839C120.388 283.325 121.325 282.926 122.902 282.372L127.727 280.676L134 298.519C134.511 299.973 134.83 301.077 134.981 302.101L137.888 301.079C137.311 300.031 136.945 299.187 136.412 297.671L130.139 279.828ZM153.571 296.017C158.55 294.266 160.548 289.672 158.689 284.384C156.819 279.065 152.438 276.783 147.397 278.555C142.357 280.327 140.337 284.86 142.217 290.21C144.098 295.56 148.5 297.8 153.571 296.017ZM148.144 280.482C151.701 279.231 154.84 281.046 156.308 285.221C157.776 289.396 156.452 292.745 152.834 294.017C149.215 295.29 146.056 293.516 144.577 289.311C143.109 285.136 144.464 281.776 148.144 280.482ZM191.622 282.187C191.528 281.525 191.489 281.018 191.456 279.64L191.034 267.766C190.971 265.807 190.938 264.429 190.957 263.692L188.143 264.682C188.396 265.6 188.582 266.821 188.648 268.292L189.09 276.962C189.093 277.169 189.189 277.935 189.334 279.239C189.196 279.044 189.196 279.044 188.91 278.624C188.634 278.234 188.209 277.619 188.018 277.373L181.918 269.511C181.283 268.692 180.762 267.902 180.474 267.378L178.402 268.107C178.536 268.685 178.623 269.627 178.609 270.674L178.748 280.459C178.754 280.77 178.817 282.137 178.882 282.914C178.285 281.907 177.871 281.323 177.532 280.852L172.567 273.945C171.656 272.737 171.069 271.762 170.671 270.825L167.825 271.825C168.566 272.746 169.572 274.025 170.345 275.039L177.405 284.545C178.433 285.886 178.455 285.948 178.912 286.656L181.077 285.895C180.985 285.336 180.917 284.353 180.911 283.347L180.768 273.355C180.752 273.013 180.706 272.092 180.649 271.139C181.361 272.174 181.744 272.769 181.86 272.902L188.054 280.836C188.637 281.604 189.136 282.332 189.488 282.937L191.622 282.187ZM202.091 278.507C201.512 277.355 201.124 276.449 200.646 275.088L198.558 269.151C198.38 267.754 198.488 266.778 198.963 265.36C199.636 263.421 200.798 262.178 202.53 261.57C204.942 260.722 206.782 261.708 207.728 264.398L210.294 271.696C210.838 273.242 211.102 274.192 211.306 275.267L214.089 274.288C213.533 273.198 213.155 272.323 212.655 270.901L209.926 263.139C208.654 259.521 205.739 258.148 202.121 259.42C200.235 260.083 198.997 261.109 198.07 262.721C197.545 263.6 197.368 264.184 197.108 265.422C196.918 264.585 196.831 264.337 196.657 263.843L194.82 258.616C194.265 257.039 194.045 256.214 193.828 255.004L191.076 255.972C191.632 257.062 191.977 257.844 192.521 259.39L198.326 275.904C198.87 277.45 199.102 278.307 199.338 279.474L202.091 278.507ZM229.434 268.894L231.939 268.013C231.318 266.841 230.985 266.09 230.495 264.698L227.44 256.008C226.266 252.669 223.554 251.676 219.472 253.111C217.153 253.927 215.504 255.167 214.649 256.787C214.115 257.74 213.942 258.53 213.885 260.149L216.482 259.826C216.465 258.79 216.56 258.27 216.81 257.696C217.361 256.494 218.476 255.616 220.177 255.018C222.744 254.115 224.454 254.73 225.194 256.833L225.824 258.627C222.053 260.057 220.634 260.764 218.994 261.931C216.401 263.746 215.485 266.084 216.355 268.558C217.388 271.495 220.08 272.53 223.481 271.334C224.533 270.964 225.57 270.356 226.48 269.585C227.39 268.813 227.836 268.204 228.662 266.698L229.434 268.894ZM227.172 262.461C227.607 263.698 227.588 264.435 227.149 265.458C226.41 267.212 224.766 268.762 222.973 269.393C220.963 270.1 219.314 269.463 218.716 267.762C218.194 266.278 218.598 264.955 219.947 263.751C221.132 262.674 222.818 261.838 226.466 260.451L227.172 262.461ZM230.68 244.549C231.194 245.516 231.669 246.669 232.104 247.906L232.517 249.081L231.28 249.516C229.981 249.973 229.352 250.159 228.431 250.309L229.258 252.659C230.235 252.177 230.924 251.865 231.976 251.495L233.213 251.06L237.105 262.131C237.616 263.585 238.179 264.394 239.015 264.795C239.851 265.197 241.022 265.167 242.382 264.689C243.65 264.243 244.544 263.72 245.627 262.749L244.185 260.823C243.382 261.801 242.829 262.204 242.025 262.486C241.376 262.715 240.785 262.714 240.325 262.493C239.949 262.313 239.662 261.892 239.347 260.996L235.563 250.234L237.047 249.712C238.439 249.223 239.223 248.982 240.267 248.789L239.441 246.438C238.413 246.973 237.774 247.233 236.352 247.733L234.867 248.255L234.454 247.08C233.986 245.75 233.657 244.615 233.464 243.571L230.68 244.549ZM270.412 245.522C270.056 244.709 269.509 243.546 269.358 243.217C267.283 239.29 263.504 237.735 259.515 239.137C254.877 240.768 253.064 245.297 254.923 250.585C256.804 255.935 261.061 258.261 265.916 256.554C268.174 255.76 269.799 254.355 270.753 252.421C271.214 251.46 271.42 250.762 271.551 249.256L269.082 249.152C269.053 251.837 267.756 253.683 265.251 254.564C263.396 255.216 261.62 255.007 260.152 253.994C258.925 253.174 258.214 252.139 257.393 250.099L270.412 245.522ZM256.8 248.118C256.573 246.878 256.532 246.267 256.693 245.342C257.012 243.284 258.252 241.771 260.138 241.107C261.623 240.585 262.992 240.625 264.277 241.216C265.603 241.827 266.459 242.777 267.253 244.443L256.8 248.118ZM290.624 247.381C287.815 245.519 287.815 245.519 287.365 245.226L281.282 240.971L283.254 234.127C283.519 233.2 283.875 232.137 284.238 230.897L281.269 231.941C281.208 232.657 281.046 233.479 280.792 234.437L279.325 239.852L274.761 236.557C273.88 235.928 273.386 235.512 272.827 234.909L269.796 235.974C271.882 237.361 272.238 237.583 272.522 237.796L278.468 241.96L276.257 249.409C275.924 250.637 275.47 252.013 275.193 252.806L278.254 251.729C278.414 250.701 278.498 250.15 278.754 249.295L280.425 243.079L285.366 246.658C286.364 247.419 286.847 247.805 287.562 248.457L290.624 247.381ZM287.848 224.45C288.362 225.417 288.837 226.57 289.272 227.807L289.685 228.982L288.448 229.417C287.149 229.874 286.52 230.06 285.6 230.21L286.426 232.56C287.403 232.078 288.092 231.766 289.144 231.396L290.381 230.961L294.273 242.032C294.784 243.486 295.347 244.296 296.183 244.697C297.019 245.098 298.19 245.068 299.55 244.59C300.818 244.144 301.712 243.621 302.795 242.65L301.353 240.724C300.55 241.702 299.997 242.105 299.193 242.387C298.544 242.616 297.953 242.615 297.493 242.394C297.117 242.214 296.83 241.794 296.515 240.897L292.731 230.135L294.215 229.613C295.607 229.124 296.391 228.883 297.435 228.69L296.609 226.339C295.581 226.875 294.942 227.134 293.52 227.634L292.035 228.156L291.622 226.981C291.155 225.651 290.825 224.516 290.632 223.472L287.848 224.45ZM317.282 229.044C316.926 228.23 316.379 227.068 316.228 226.739C314.153 222.812 310.374 221.256 306.385 222.659C301.746 224.29 299.934 228.819 301.793 234.107C303.674 239.457 307.931 241.782 312.786 240.075C315.044 239.282 316.669 237.876 317.623 235.943C318.084 234.981 318.29 234.283 318.421 232.778L315.952 232.673C315.923 235.359 314.626 237.205 312.121 238.085C310.266 238.738 308.49 238.528 307.022 237.515C305.795 236.696 305.084 235.66 304.263 233.621L317.282 229.044ZM303.67 231.64C303.443 230.4 303.402 229.789 303.563 228.863C303.882 226.805 305.122 225.292 307.008 224.629C308.493 224.107 309.862 224.147 311.147 224.738C312.473 225.348 313.328 226.299 314.123 227.965L303.67 231.64ZM326.454 234.784C325.875 233.632 325.487 232.726 325.009 231.365L322.911 225.397C322.723 224.073 322.822 223.169 323.257 221.835C323.968 219.709 325.088 218.446 326.82 217.837C329.263 216.979 331.115 217.995 332.093 220.779L334.626 227.984C335.105 229.345 335.369 230.294 335.638 231.555L338.422 230.576C337.908 229.61 337.542 228.766 336.988 227.189L334.302 219.55C333.769 218.035 333.089 216.989 332.186 216.298C330.664 215.131 328.649 214.936 326.423 215.719C323.639 216.697 322.053 218.61 321.491 221.657C321.334 220.913 321.247 220.665 321.117 220.294L320.377 218.191L317.811 219.094C318.431 220.266 318.797 221.11 319.286 222.501L322.69 232.181C323.211 233.665 323.443 234.522 323.671 235.762L326.454 234.784ZM355.868 224.442L358.342 223.573C357.764 222.421 357.419 221.639 356.875 220.092L351.091 203.64C350.613 202.28 350.359 201.361 350.079 200.07L347.358 201.027C347.926 202.147 348.303 203.022 348.814 204.476L350.271 208.62C350.521 209.331 350.619 209.609 350.94 210.226L351.134 210.679C349.023 209.024 346.456 208.641 343.642 209.63C339.003 211.261 337.219 215.675 339.078 220.963C340.97 226.344 345.03 228.6 349.792 226.926C352.606 225.937 354.236 224.148 354.895 221.379C355.018 221.927 355.183 222.494 355.335 222.927L355.868 224.442ZM344.596 211.553C346.235 210.977 347.926 211.043 349.378 211.714C350.872 212.404 352.121 213.981 352.838 216.022C354.273 220.104 352.878 223.548 349.26 224.82C347.528 225.429 345.846 225.29 344.464 224.421C343.301 223.683 342.217 222.084 341.5 220.043C340.054 215.93 341.225 212.738 344.596 211.553ZM386.159 213.793L388.632 212.923C388.054 211.771 387.709 210.989 387.166 209.443L381.382 192.991C380.903 191.63 380.65 190.712 380.37 189.421L377.648 190.377C378.216 191.498 378.593 192.373 379.104 193.827L380.561 197.97C380.811 198.682 380.909 198.96 381.23 199.577L381.424 200.03C379.313 198.374 376.746 197.991 373.932 198.981C369.293 200.612 367.51 205.026 369.369 210.314C371.261 215.695 375.32 217.951 380.082 216.277C382.896 215.287 384.526 213.498 385.186 210.73C385.309 211.277 385.474 211.845 385.626 212.278L386.159 213.793ZM374.886 200.904C376.525 200.328 378.216 200.393 379.668 201.064C381.162 201.755 382.411 203.331 383.129 205.372C384.564 209.454 383.168 212.898 379.55 214.17C377.819 214.779 376.137 214.641 374.754 213.772C373.591 213.034 372.508 211.434 371.79 209.393C370.344 205.28 371.515 202.089 374.886 200.904ZM400.726 209.123C405.704 207.373 407.703 202.779 405.844 197.49C403.974 192.171 399.593 189.89 394.552 191.662C389.511 193.434 387.491 197.966 389.372 203.316C391.253 208.666 395.654 210.906 400.726 209.123ZM395.299 193.588C398.855 192.338 401.995 194.153 403.463 198.328C404.93 202.502 403.606 205.852 399.988 207.124C396.37 208.396 393.21 206.623 391.731 202.417C390.264 198.242 391.619 194.882 395.299 193.588ZM424.189 191.458C423.833 190.645 423.286 189.482 423.135 189.153C421.06 185.226 417.281 183.671 413.292 185.073C408.653 186.704 406.841 191.233 408.7 196.521C410.581 201.871 414.838 204.196 419.693 202.489C421.951 201.696 423.576 200.29 424.53 198.357C424.991 197.395 425.197 196.698 425.328 195.192L422.859 195.087C422.83 197.773 421.533 199.619 419.028 200.499C417.173 201.152 415.397 200.942 413.929 199.93C412.702 199.11 411.991 198.074 411.17 196.035L424.189 191.458ZM410.577 194.054C410.35 192.814 410.309 192.203 410.47 191.277C410.789 189.219 412.029 187.706 413.915 187.043C415.4 186.521 416.769 186.561 418.054 187.152C419.38 187.763 420.235 188.713 421.03 190.379L410.577 194.054ZM428.094 193.977C428.849 195.136 429.25 195.585 429.942 196.072C431.641 197.247 434.099 197.32 436.913 196.331C441.15 194.842 443.104 192 442.017 188.908C441.571 187.64 440.632 186.649 439.402 186.213C438.224 185.828 437.104 185.805 433.865 186.179C431.807 186.451 430.916 186.487 430.063 186.335C429.252 186.203 428.664 185.715 428.414 185.004C427.837 183.365 429.043 181.655 431.301 180.861C432.692 180.372 433.947 180.383 434.93 180.906C435.515 181.186 435.8 181.503 436.279 182.273L438.581 181.012C437.679 179.731 436.996 179.172 435.953 178.774C434.491 178.176 432.678 178.257 430.576 178.997C428.504 179.725 427.029 180.869 426.317 182.301C425.744 183.44 425.65 184.655 426.042 185.768C426.52 187.129 427.51 188.066 428.853 188.428C430.155 188.77 431.336 188.771 433.995 188.427C436.447 188.086 437.13 188.054 438.036 188.257C438.826 188.431 439.364 188.972 439.668 189.838C440.31 191.662 439.011 193.404 436.321 194.35C434.744 194.905 433.376 194.969 432.353 194.529C431.539 194.19 431.096 193.72 430.477 192.652L428.094 193.977ZM451.954 166.755C452.467 167.721 452.942 168.875 453.377 170.112L453.79 171.287L452.553 171.722C451.254 172.178 450.625 172.365 449.705 172.515L450.531 174.865C451.508 174.382 452.198 174.07 453.249 173.701L454.486 173.266L458.378 184.337C458.889 185.79 459.452 186.6 460.288 187.001C461.124 187.402 462.295 187.373 463.656 186.894C464.923 186.449 465.817 185.926 466.9 184.955L465.459 183.029C464.655 184.006 464.102 184.409 463.298 184.692C462.649 184.92 462.058 184.92 461.598 184.699C461.222 184.519 460.935 184.098 460.62 183.201L456.836 172.44L458.321 171.918C459.712 171.428 460.496 171.188 461.54 170.994L460.714 168.644C459.686 169.179 459.047 169.438 457.625 169.939L456.14 170.46L455.727 169.285C455.26 167.956 454.93 166.821 454.737 165.777L451.954 166.755ZM472.348 183.491C471.769 182.339 471.381 181.433 470.903 180.072L468.815 174.135C468.637 172.738 468.746 171.762 469.22 170.344C469.893 168.405 471.055 167.163 472.787 166.554C475.199 165.706 477.04 166.692 477.986 169.382L480.551 176.68C481.095 178.227 481.359 179.176 481.564 180.251L484.347 179.272C483.79 178.183 483.413 177.307 482.913 175.885L480.184 168.123C478.912 164.505 475.997 163.132 472.378 164.404C470.492 165.067 469.254 166.093 468.327 167.705C467.802 168.584 467.625 169.168 467.365 170.406C467.175 169.569 467.088 169.322 466.915 168.827L465.077 163.601C464.523 162.023 464.302 161.198 464.085 159.988L461.333 160.956C461.89 162.046 462.234 162.828 462.778 164.374L468.584 180.888C469.127 182.434 469.359 183.291 469.596 184.458L472.348 183.491ZM500.473 164.638C500.118 163.825 499.57 162.662 499.42 162.333C497.344 158.406 493.566 156.851 489.577 158.253C484.938 159.884 483.125 164.413 484.984 169.701C486.865 175.051 491.123 177.377 495.978 175.67C498.235 174.876 499.861 173.471 500.814 171.537C501.275 170.576 501.482 169.878 501.612 168.372L499.143 168.268C499.115 170.953 497.818 172.799 495.313 173.68C493.457 174.332 491.681 174.123 490.213 173.11C488.987 172.29 488.275 171.255 487.454 169.215L500.473 164.638ZM486.862 167.234C486.634 165.994 486.593 165.383 486.754 164.458C487.073 162.4 488.313 160.887 490.2 160.223C491.684 159.701 493.053 159.741 494.338 160.332C495.665 160.943 496.52 161.893 497.314 163.56L486.862 167.234ZM148.742 340.238C148.386 339.425 147.839 338.263 147.688 337.933C145.613 334.007 141.834 332.451 137.845 333.854C133.206 335.485 131.394 340.014 133.253 345.302C135.134 350.652 139.391 352.977 144.246 351.27C146.504 350.476 148.129 349.071 149.083 347.137C149.544 346.176 149.75 345.478 149.881 343.973L147.412 343.868C147.383 346.553 146.086 348.399 143.581 349.28C141.726 349.932 139.95 349.723 138.482 348.71C137.255 347.89 136.544 346.855 135.723 344.816L148.742 340.238ZM135.13 342.835C134.903 341.594 134.862 340.983 135.023 340.058C135.342 338 136.582 336.487 138.468 335.824C139.953 335.302 141.322 335.342 142.607 335.932C143.933 336.543 144.788 337.493 145.583 339.16L135.13 342.835ZM157.852 346C157.263 344.817 156.907 344.004 156.407 342.582L154.276 336.52C153.993 335.716 153.946 334.1 154.209 333.069C154.646 331.248 155.826 329.86 157.434 329.295C159.661 328.512 161.42 329.561 162.376 332.283L164.942 339.581C165.497 341.158 165.718 341.984 165.954 343.152L168.737 342.173C168.213 341.176 167.847 340.332 167.303 338.786L165.161 332.693C164.835 331.766 164.79 330.253 165.062 329.149C165.459 327.412 166.619 326.066 168.165 325.522C170.639 324.652 172.167 325.54 173.2 328.477L175.766 335.776C176.342 337.415 176.561 338.137 176.778 339.346L179.561 338.368C179.026 337.34 178.671 336.526 178.127 334.98L175.441 327.342C174.8 325.517 174.067 324.42 172.977 323.691C171.614 322.781 169.839 322.675 167.798 323.392C165.201 324.306 163.879 325.882 163.262 328.774C162.627 327.955 162.311 327.65 161.673 327.318C160.376 326.593 158.892 326.524 157.129 327.143C155.336 327.774 154.016 328.863 153.334 330.284C152.944 331.151 152.796 331.62 152.703 332.244C152.527 331.645 152.428 331.263 152.373 331.109L151.775 329.408L149.271 330.289C149.817 331.347 150.172 332.161 150.716 333.707L154.119 343.386C154.63 344.84 154.894 345.789 155.131 346.957L157.852 346ZM191.567 334.598C196.546 332.848 198.544 328.254 196.685 322.966C194.815 317.647 190.434 315.365 185.393 317.137C180.353 318.909 178.332 323.442 180.213 328.791C182.094 334.141 186.495 336.381 191.567 334.598ZM186.14 319.063C189.696 317.813 192.836 319.628 194.304 323.803C195.772 327.978 194.448 331.327 190.829 332.599C187.211 333.871 184.051 332.098 182.573 327.892C181.105 323.718 182.46 320.357 186.14 319.063ZM197.707 308.082C198.22 309.048 198.695 310.202 199.13 311.439L199.543 312.614L198.306 313.049C197.008 313.505 196.378 313.692 195.458 313.842L196.284 316.192C197.261 315.709 197.951 315.398 199.002 315.028L200.239 314.593L204.132 325.664C204.642 327.117 205.205 327.927 206.041 328.328C206.877 328.729 208.048 328.7 209.409 328.221C210.677 327.776 211.57 327.253 212.653 326.282L211.212 324.356C210.409 325.333 209.855 325.736 209.051 326.019C208.402 326.247 207.811 326.247 207.351 326.026C206.975 325.846 206.688 325.425 206.373 324.528L202.589 313.767L204.074 313.245C205.465 312.756 206.249 312.515 207.293 312.321L206.467 309.971C205.439 310.506 204.801 310.766 203.378 311.266L201.894 311.788L201.481 310.612C201.013 309.283 200.683 308.148 200.49 307.104L197.707 308.082ZM207.055 302.294L208.023 305.046L211.022 303.991L210.055 301.239L207.055 302.294ZM209.551 309.096C210.086 310.124 210.474 311.03 210.996 312.514L214.399 322.193C214.855 323.492 215.098 324.38 215.411 325.764L218.194 324.785C217.615 323.634 217.249 322.789 216.749 321.367L213.346 311.688C212.802 310.141 212.56 309.254 212.334 308.117L209.551 309.096ZM230.374 320.955C235.353 319.205 237.351 314.61 235.492 309.322C233.622 304.003 229.241 301.721 224.2 303.493C219.159 305.266 217.139 309.798 219.02 315.148C220.901 320.498 225.302 322.738 230.374 320.955ZM224.947 305.42C228.503 304.17 231.643 305.985 233.111 310.159C234.578 314.334 233.254 317.684 229.636 318.956C226.018 320.228 222.858 318.455 221.379 314.249C219.912 310.074 221.267 306.714 224.947 305.42ZM244.829 315.421C244.25 314.27 243.862 313.364 243.384 312.003L241.285 306.034C241.098 304.71 241.197 303.807 241.631 302.473C242.343 300.346 243.463 299.084 245.195 298.475C247.638 297.616 249.489 298.633 250.468 301.416L253.001 308.622C253.48 309.982 253.744 310.932 254.013 312.192L256.796 311.214C256.283 310.247 255.917 309.403 255.362 307.826L252.677 300.188C252.144 298.673 251.463 297.626 250.561 296.936C249.038 295.769 247.024 295.573 244.797 296.356C242.014 297.335 240.428 299.247 239.866 302.294C239.709 301.55 239.622 301.303 239.491 300.932L238.752 298.829L236.185 299.731C236.806 300.903 237.172 301.747 237.661 303.139L241.064 312.818C241.586 314.303 241.818 315.159 242.045 316.4L244.829 315.421ZM279.116 303.818C284.095 302.068 286.093 297.474 284.234 292.186C282.364 286.867 277.983 284.585 272.942 286.357C267.902 288.129 265.881 292.661 267.762 298.011C269.643 303.361 274.044 305.601 279.116 303.818ZM273.689 288.283C277.245 287.033 280.385 288.848 281.853 293.023C283.321 297.198 281.997 300.547 278.378 301.819C274.76 303.091 271.6 301.318 270.122 297.112C268.654 292.938 270.009 289.577 273.689 288.283ZM287.85 283.791L291.786 294.986C292.242 296.285 292.55 297.358 292.798 298.556L295.581 297.578C295.024 296.488 294.658 295.644 294.147 294.19L290.2 282.965L291.747 282.421C293.262 281.888 293.984 281.669 295.09 281.454L294.263 279.104C293.174 279.661 292.38 279.975 291.051 280.442L289.504 280.986L288.906 279.285C288.395 277.831 288.291 277.138 288.457 276.524C288.663 275.826 289.277 275.298 290.266 274.95C291.225 274.613 292.074 274.557 293.083 274.759L293.004 272.458C291.739 272.417 290.715 272.568 289.509 272.992C287.777 273.601 286.55 274.658 286.145 275.878C285.749 277.024 285.85 278.101 286.513 279.987L287.154 281.812L285.886 282.258C284.649 282.693 283.885 282.892 283.007 283.062L283.833 285.412C284.748 284.951 285.5 284.617 286.582 284.237L287.85 283.791ZM325.773 277.999C325.417 277.185 324.869 276.023 324.719 275.694C322.643 271.767 318.865 270.211 314.876 271.614C310.237 273.245 308.424 277.774 310.283 283.062C312.164 288.412 316.422 290.737 321.277 289.03C323.534 288.237 325.16 286.831 326.113 284.898C326.574 283.936 326.781 283.238 326.912 281.733L324.443 281.628C324.414 284.314 323.117 286.16 320.612 287.04C318.757 287.693 316.98 287.483 315.512 286.47C314.286 285.651 313.575 284.615 312.753 282.576L325.773 277.999ZM312.161 280.595C311.934 279.355 311.892 278.744 312.054 277.818C312.372 275.76 313.613 274.247 315.499 273.584C316.983 273.062 318.352 273.102 319.637 273.693C320.964 274.303 321.819 275.254 322.614 276.92L312.161 280.595ZM334.883 283.76C334.293 282.578 333.938 281.765 333.438 280.342L331.307 274.281C331.024 273.477 330.977 271.86 331.24 270.83C331.677 269.008 332.857 267.62 334.465 267.055C336.691 266.272 338.45 267.322 339.407 270.043L341.973 277.341C342.527 278.918 342.748 279.744 342.985 280.912L345.768 279.933C345.244 278.936 344.878 278.092 344.334 276.546L342.192 270.454C341.866 269.526 341.821 268.013 342.093 266.91C342.49 265.172 343.649 263.826 345.196 263.282C347.67 262.413 349.198 263.3 350.231 266.238L352.796 273.536C353.373 275.175 353.592 275.897 353.809 277.107L356.592 276.128C356.057 275.1 355.701 274.287 355.158 272.741L352.472 265.102C351.831 263.278 351.097 262.18 350.007 261.452C348.645 260.541 346.87 260.435 344.829 261.153C342.231 262.066 340.909 263.643 340.293 266.535C339.658 265.716 339.342 265.41 338.704 265.078C337.407 264.353 335.923 264.284 334.16 264.904C332.367 265.534 331.047 266.624 330.365 268.045C329.975 268.912 329.827 269.38 329.734 270.004C329.558 269.406 329.458 269.024 329.404 268.869L328.806 267.168L326.301 268.049C326.847 269.108 327.203 269.921 327.746 271.467L331.149 281.147C331.66 282.6 331.925 283.549 332.161 284.717L334.883 283.76ZM365.946 280.136C365.389 279.046 365.012 278.171 364.501 276.718L363.153 272.883C362.86 272.048 362.666 271.595 362.268 270.762C364.472 272.385 367.07 272.757 369.791 271.8C374.43 270.169 376.214 265.755 374.365 260.498C372.474 255.117 368.425 252.892 363.663 254.566C360.91 255.534 359.148 257.439 358.528 260.124C358.405 259.576 358.317 259.225 358.175 258.823L357.556 257.061L355.082 257.93C355.649 259.051 356.026 259.926 356.548 261.411L362.224 277.553C362.669 278.821 362.956 279.832 363.225 281.093L365.946 280.136ZM368.868 269.866C367.26 270.432 365.507 270.388 364.055 269.717C362.561 269.026 361.26 267.399 360.553 265.388C359.15 261.399 360.627 257.892 364.184 256.641C367.647 255.424 370.475 257.14 371.953 261.346C373.399 265.459 372.239 268.681 368.868 269.866ZM391.973 263.689L394.478 262.808C393.858 261.636 393.524 260.885 393.035 259.493L389.98 250.804C388.805 247.464 386.094 246.471 382.012 247.906C379.692 248.722 378.043 249.962 377.189 251.583C376.655 252.535 376.481 253.326 376.425 254.944L379.022 254.621C379.005 253.585 379.1 253.065 379.35 252.491C379.9 251.29 381.016 250.411 382.717 249.813C385.283 248.91 386.994 249.525 387.733 251.628L388.364 253.422C384.593 254.852 383.173 255.559 381.534 256.726C378.94 258.542 378.025 260.879 378.895 263.353C379.927 266.291 382.619 267.325 386.021 266.129C387.072 265.759 388.109 265.151 389.019 264.38C389.93 263.608 390.376 262.999 391.201 261.493L391.973 263.689ZM389.712 257.256C390.147 258.493 390.128 259.23 389.688 260.253C388.95 262.007 387.306 263.558 385.512 264.188C383.502 264.895 381.854 264.258 381.256 262.557C380.734 261.073 381.137 259.75 382.486 258.546C383.671 257.469 385.358 256.633 389.005 255.246L389.712 257.256ZM393.22 239.345C393.733 240.311 394.208 241.464 394.643 242.701L395.056 243.876L393.819 244.311C392.521 244.768 391.891 244.954 390.971 245.104L391.797 247.454C392.774 246.972 393.464 246.66 394.515 246.29L395.752 245.855L399.644 256.926C400.155 258.38 400.718 259.19 401.554 259.591C402.39 259.992 403.561 259.962 404.922 259.484C406.19 259.038 407.083 258.516 408.166 257.544L406.725 255.619C405.922 256.596 405.368 256.999 404.564 257.281C403.915 257.51 403.324 257.509 402.864 257.288C402.488 257.108 402.201 256.688 401.886 255.791L398.102 245.029L399.587 244.507C400.978 244.018 401.762 243.777 402.806 243.584L401.98 241.234C400.952 241.769 400.313 242.028 398.891 242.528L397.407 243.05L396.993 241.875C396.526 240.545 396.196 239.41 396.003 238.366L393.22 239.345ZM413.614 256.08C413.035 254.929 412.647 254.023 412.169 252.662L410.082 246.724C409.903 245.328 410.012 244.352 410.486 242.934C411.16 240.994 412.321 239.752 414.053 239.143C416.465 238.295 418.306 239.281 419.252 241.972L421.818 249.27C422.361 250.816 422.625 251.766 422.83 252.84L425.613 251.862C425.056 250.772 424.679 249.897 424.179 248.474L421.45 240.712C420.178 237.094 417.263 235.722 413.645 236.994C411.758 237.657 410.52 238.683 409.593 240.294C409.068 241.174 408.891 241.757 408.631 242.995C408.442 242.159 408.355 241.911 408.181 241.416L406.343 236.19C405.789 234.613 405.568 233.787 405.351 232.578L402.599 233.545C403.156 234.635 403.5 235.418 404.044 236.964L409.85 253.477C410.393 255.024 410.625 255.88 410.862 257.048L413.614 256.08ZM435.248 247.919L435.021 251.82C434.929 253.139 434.382 253.956 433.331 254.326C432.743 254.532 432.267 254.561 431.26 254.463L431.415 256.98C432.677 256.814 433.39 256.668 434.07 256.429C436.266 255.657 437.311 254.282 437.419 252.02L438.41 232.699C438.529 230.469 438.631 229.078 438.653 228.549L435.777 229.56C435.958 230.469 435.973 231.402 435.909 233.196L435.573 244.99L427.436 236.175C426.528 235.174 425.691 234.079 425.232 233.267L422.202 234.333C422.706 234.781 422.706 234.781 425.174 237.353L435.248 247.919ZM459.843 239.827L459.235 238.095C459.093 237.693 458.975 237.457 458.707 236.891C459.463 237.459 459.861 237.702 460.726 237.988C462.561 238.663 464.158 238.658 466.106 237.973C470.93 236.277 472.685 231.977 470.771 226.534C468.879 221.153 464.904 218.937 460.141 220.612C457.327 221.601 455.616 223.454 454.967 226.253C454.777 225.416 454.612 224.849 454.319 224.014L452.851 219.839C452.329 218.355 452.075 217.436 451.828 216.238L449.106 217.194C449.685 218.346 450.095 219.314 450.552 220.613L456.336 237.065C456.857 238.549 457.111 239.468 457.369 240.697L459.843 239.827ZM468.379 227.34C469.869 231.577 468.708 234.799 465.245 236.017C461.688 237.268 458.32 235.394 456.917 231.405C455.525 227.447 457.002 223.939 460.652 222.656C464.084 221.449 466.911 223.166 468.379 227.34ZM489.515 229.395L492.082 228.493C491.461 227.321 491.095 226.477 490.606 225.086L487.203 215.406C486.703 213.984 486.416 212.972 486.191 211.836L483.438 212.803C483.973 213.831 484.416 214.892 484.883 216.222L486.982 222.19C487.138 223.525 487.07 224.418 486.646 225.783C485.997 227.887 484.815 229.172 483.052 229.791C480.64 230.639 478.767 229.561 477.799 226.808L475.266 219.603C474.787 218.242 474.48 217.169 474.254 216.032L471.471 217.011C471.973 217.946 472.415 219.007 472.905 220.398L475.59 228.037C476.112 229.521 476.845 230.618 477.717 231.319C479.229 232.456 481.243 232.651 483.47 231.868C486.253 230.89 487.768 229.072 488.423 225.992C488.613 226.829 488.689 227.045 488.808 227.385L489.515 229.395ZM488.184 203.456L489.152 206.208L492.151 205.153L491.184 202.401L488.184 203.456ZM490.68 210.257C491.215 211.285 491.603 212.191 492.125 213.676L495.528 223.355C495.984 224.654 496.227 225.542 496.54 226.926L499.323 225.947C498.744 224.795 498.378 223.951 497.878 222.529L494.475 212.849C493.931 211.303 493.689 210.416 493.463 209.279L490.68 210.257ZM495.584 200.854C496.13 201.913 496.485 202.726 497.018 204.242L502.846 220.817C503.335 222.209 503.61 223.189 503.847 224.357L506.63 223.378C506.04 222.196 505.685 221.382 505.196 219.991L499.379 203.446C498.836 201.9 498.604 201.043 498.367 199.876L495.584 200.854ZM524.115 217.231L526.589 216.361C526.011 215.209 525.666 214.427 525.123 212.881L519.338 196.429C518.86 195.068 518.607 194.15 518.326 192.858L515.605 193.815C516.173 194.936 516.55 195.811 517.061 197.264L518.518 201.408C518.768 202.12 518.866 202.398 519.187 203.015L519.381 203.468C517.27 201.812 514.703 201.429 511.889 202.419C507.25 204.049 505.467 208.464 507.326 213.752C509.217 219.133 513.277 221.389 518.039 219.715C520.853 218.725 522.483 216.936 523.143 214.168C523.266 214.715 523.43 215.283 523.583 215.716L524.115 217.231ZM512.843 204.342C514.482 203.765 516.173 203.831 517.625 204.502C519.119 205.193 520.368 206.769 521.085 208.81C522.521 212.892 521.125 216.336 517.507 217.608C515.775 218.217 514.094 218.079 512.711 217.21C511.548 216.472 510.465 214.872 509.747 212.831C508.301 208.718 509.472 205.527 512.843 204.342ZM249.8 365.614C249.21 364.431 248.855 363.618 248.355 362.195L246.224 356.134C245.941 355.33 245.894 353.714 246.157 352.683C246.594 350.861 247.774 349.474 249.382 348.908C251.608 348.126 253.367 349.175 254.324 351.896L256.89 359.195C257.444 360.772 257.665 361.597 257.902 362.765L260.685 361.787C260.161 360.79 259.795 359.945 259.251 358.399L257.109 352.307C256.783 351.379 256.737 349.866 257.01 348.763C257.406 347.025 258.566 345.679 260.113 345.136C262.587 344.266 264.115 345.153 265.148 348.091L267.713 355.389C268.29 357.028 268.509 357.75 268.725 358.96L271.509 357.981C270.974 356.953 270.618 356.14 270.075 354.594L267.389 346.955C266.748 345.131 266.014 344.034 264.924 343.305C263.562 342.394 261.787 342.288 259.746 343.006C257.148 343.919 255.826 345.496 255.21 348.388C254.575 347.569 254.259 347.263 253.621 346.931C252.323 346.206 250.84 346.137 249.077 346.757C247.283 347.387 245.964 348.477 245.282 349.898C244.892 350.765 244.744 351.234 244.651 351.857C244.475 351.259 244.375 350.877 244.321 350.722L243.723 349.021L241.218 349.902C241.764 350.961 242.12 351.774 242.663 353.32L246.066 363C246.577 364.453 246.842 365.403 247.078 366.57L249.8 365.614ZM283.515 354.212C288.493 352.462 290.492 347.867 288.633 342.579C286.763 337.26 282.382 334.978 277.341 336.751C272.3 338.523 270.28 343.055 272.161 348.405C274.042 353.755 278.443 355.995 283.515 354.212ZM278.088 338.677C281.644 337.427 284.784 339.242 286.252 343.416C287.719 347.591 286.395 350.941 282.777 352.213C279.159 353.485 275.999 351.712 274.52 347.506C273.053 343.331 274.408 339.971 278.088 338.677ZM300.026 329.227C298.651 329.467 298.104 329.59 297.176 329.916C295.692 330.438 294.749 331.117 293.846 332.303C293.348 332.964 293.059 333.622 292.808 334.787C292.763 334.56 292.6 334.096 292.513 333.849L291.893 332.086L289.326 332.988C289.872 334.047 290.228 334.861 290.771 336.407L294.174 346.086C294.62 347.354 294.841 348.18 295.186 349.657L297.97 348.678C297.391 347.527 297.025 346.682 296.535 345.291L294.318 338.982C293.952 337.547 293.969 336.707 294.375 335.487C294.867 333.924 295.938 332.818 297.515 332.264C298.288 331.992 298.877 331.889 300.183 331.847L300.026 329.227ZM319.483 341.115L321.988 340.234C321.368 339.062 321.034 338.311 320.545 336.919L317.49 328.229C316.316 324.89 313.604 323.897 309.522 325.332C307.203 326.148 305.554 327.388 304.699 329.008C304.165 329.961 303.991 330.751 303.935 332.37L306.532 332.047C306.515 331.011 306.61 330.491 306.86 329.917C307.41 328.715 308.526 327.837 310.227 327.239C312.794 326.336 314.504 326.951 315.243 329.054L315.874 330.848C312.103 332.278 310.684 332.985 309.044 334.152C306.451 335.967 305.535 338.305 306.405 340.779C307.438 343.716 310.129 344.751 313.531 343.555C314.582 343.185 315.62 342.577 316.53 341.806C317.44 341.034 317.886 340.425 318.712 338.919L319.483 341.115ZM317.222 334.682C317.657 335.919 317.638 336.656 317.198 337.679C316.46 339.433 314.816 340.983 313.022 341.614C311.012 342.321 309.364 341.684 308.766 339.983C308.244 338.499 308.647 337.176 309.996 335.972C311.181 334.895 312.868 334.059 316.515 332.672L317.222 334.682ZM317.999 315.229C318.545 316.288 318.9 317.101 319.433 318.616L325.261 335.192C325.75 336.583 326.025 337.564 326.262 338.731L329.045 337.753C328.456 336.57 328.1 335.757 327.611 334.365L321.794 317.821C321.251 316.275 321.019 315.418 320.782 314.25L317.999 315.229ZM353.533 315.349C352.846 314.583 352.394 314.186 351.755 313.75C349.773 312.362 347.353 312.101 344.786 313.004C340.055 314.667 338.191 319.249 340.072 324.599C341.931 329.887 346.239 332.16 351.094 330.453C353.599 329.572 355.263 327.979 356.026 325.8C356.312 324.935 356.415 324.239 356.457 322.973L353.92 323.17C353.964 323.988 353.94 324.414 353.794 324.986C353.436 326.537 352.232 327.759 350.47 328.379C347.006 329.597 343.866 327.782 342.431 323.7C340.974 319.556 342.204 316.135 345.606 314.939C347.894 314.135 349.781 314.757 351.525 316.854L353.533 315.349ZM369.282 324.058C374.261 322.308 376.259 317.714 374.4 312.426C372.53 307.107 368.149 304.825 363.108 306.597C358.067 308.369 356.047 312.901 357.928 318.251C359.809 323.601 364.21 325.841 369.282 324.058ZM363.855 308.523C367.411 307.273 370.551 309.088 372.019 313.263C373.487 317.438 372.162 320.787 368.544 322.059C364.926 323.331 361.766 321.558 360.288 317.352C358.82 313.178 360.175 309.817 363.855 308.523ZM394.035 314.904L396.509 314.034C395.93 312.883 395.585 312.1 395.042 310.554L389.258 294.102C388.779 292.742 388.526 291.823 388.246 290.532L385.524 291.488C386.092 292.609 386.469 293.484 386.98 294.938L388.437 299.082C388.687 299.793 388.785 300.071 389.106 300.688L389.3 301.141C387.189 299.486 384.622 299.102 381.808 300.092C377.17 301.723 375.386 306.137 377.245 311.425C379.137 316.806 383.196 319.062 387.959 317.388C390.773 316.398 392.402 314.609 393.062 311.841C393.185 312.388 393.35 312.956 393.502 313.389L394.035 314.904ZM382.762 302.015C384.401 301.439 386.092 301.504 387.544 302.175C389.038 302.866 390.287 304.442 391.005 306.483C392.44 310.566 391.045 314.01 387.426 315.282C385.695 315.89 384.013 315.752 382.63 314.883C381.467 314.145 380.384 312.546 379.666 310.505C378.22 306.392 379.392 303.2 382.762 302.015ZM412.737 299.364C412.382 298.551 411.834 297.388 411.684 297.059C409.608 293.133 405.83 291.577 401.841 292.979C397.202 294.61 395.389 299.139 397.248 304.427C399.129 309.777 403.386 312.103 408.242 310.396C410.499 309.602 412.125 308.197 413.078 306.263C413.539 305.302 413.745 304.604 413.876 303.098L411.407 302.994C411.378 305.679 410.082 307.525 407.577 308.406C405.721 309.058 403.945 308.849 402.477 307.836C401.251 307.016 400.539 305.981 399.718 303.941L412.737 299.364ZM399.126 301.96C398.898 300.72 398.857 300.109 399.018 299.184C399.337 297.126 400.577 295.613 402.464 294.949C403.948 294.428 405.317 294.467 406.602 295.058C407.929 295.669 408.784 296.619 409.578 298.286L399.126 301.96ZM416.642 301.883C417.397 303.042 417.798 303.492 418.49 303.978C420.189 305.153 422.647 305.227 425.462 304.237C429.698 302.748 431.653 299.906 430.565 296.814C430.12 295.546 429.181 294.556 427.95 294.12C426.773 293.735 425.652 293.711 422.414 294.086C420.355 294.358 419.464 294.393 418.611 294.241C417.801 294.109 417.212 293.621 416.962 292.91C416.386 291.271 417.591 289.561 419.849 288.768C421.241 288.278 422.495 288.289 423.478 288.812C424.063 289.093 424.349 289.41 424.828 290.179L427.129 288.918C426.227 287.637 425.544 287.078 424.501 286.68C423.04 286.082 421.227 286.164 419.124 286.903C417.052 287.631 415.578 288.775 414.865 290.207C414.293 291.347 414.199 292.561 414.59 293.674C415.068 295.035 416.058 295.973 417.401 296.334C418.703 296.676 419.885 296.677 422.544 296.333C424.995 295.993 425.679 295.961 426.584 296.164C427.375 296.337 427.912 296.878 428.217 297.744C428.858 299.569 427.56 301.311 424.869 302.257C423.292 302.811 421.925 302.875 420.902 302.435C420.087 302.096 419.644 301.627 419.026 300.558L416.642 301.883ZM441.021 291.852C440.689 291.205 440.473 290.69 440.299 290.195C439.875 288.989 439.818 288.036 440.103 287.067C440.319 286.297 440.692 285.679 442.071 283.77C443.348 281.965 443.709 281.213 443.939 280.09C444.13 279.05 444.04 278.004 443.627 276.829C442.463 273.52 438.492 272.206 434.224 273.707C431.781 274.565 429.989 275.891 428.99 277.597C428.092 279.094 427.843 280.363 427.987 282.849L430.726 282.337C430.61 280.919 430.651 280.244 430.937 279.379C431.512 277.753 432.85 276.518 434.86 275.811C437.798 274.778 440.404 275.669 441.22 277.988C441.546 278.916 441.49 279.943 441.04 280.935C440.739 281.562 440.365 282.18 439.524 283.345C438.165 285.212 437.943 285.568 437.618 286.621C437.195 287.986 437.213 289.126 437.779 290.734C438.137 291.754 438.224 292.002 438.362 292.787L441.021 291.852ZM439.229 295.749L440.251 298.656L443.251 297.601L442.229 294.694L439.229 295.749Z" fill="black"/>
</g>
</g>
<defs>
<filter id="filter0_d_623_1003" x="0.755676" y="0.249268" width="667.307" height="543.33" filterUnits="userSpaceOnUse" color-interpolation-filters="sRGB">
<feFlood flood-opacity="0" result="BackgroundImageFix"/>
<feColorMatrix in="SourceAlpha" type="matrix" values="0 0 0 0 0 0 0 0 0 0 0 0 0 0 0 0 0 0 127 0" result="hardAlpha"/>
<feOffset dx="20.0566" dy="12.0339"/>
<feGaussianBlur stdDeviation="1.60452"/>
<feComposite in2="hardAlpha" operator="out"/>
<feColorMatrix type="matrix" values="0 0 0 0 0 0 0 0 0 0 0 0 0 0 0 0 0 0 0.25 0"/>
<feBlend mode="normal" in2="BackgroundImageFix" result="effect1_dropShadow_623_1003"/>
<feBlend mode="normal" in="SourceGraphic" in2="effect1_dropShadow_623_1003" result="shape"/>
</filter>
<clipPath id="clip0_623_1003">
<path d="M16.721 229.544C7.90361 204.464 21.0869 176.985 46.1666 168.168L478.372 16.2147C503.452 7.39726 530.931 20.5805 539.749 45.6603L628.831 299.042C637.649 324.121 624.466 351.6 599.386 360.418L167.18 512.371C142.1 521.188 114.621 508.005 105.804 482.925L16.721 229.544Z" fill="white"/>
</clipPath>
</defs>
</svg>
