<svg width="470" height="381" viewBox="0 0 470 381" fill="none" xmlns="http://www.w3.org/2000/svg">
<mask id="mask0_1309_947" style="mask-type:alpha" maskUnits="userSpaceOnUse" x="6" y="6" width="458" height="369">
<rect y="110.244" width="409.37" height="280.77" rx="25.9551" transform="rotate(-15.6227 0 110.244)" fill="#C6D87A"/>
</mask>
<g mask="url(#mask0_1309_947)">
<rect x="-25.2842" y="157.841" width="615.231" height="329.245" transform="rotate(-15.6227 -25.2842 157.841)" fill="#F0B863"/>
<path fill-rule="evenodd" clip-rule="evenodd" d="M-182.918 0.116943L-180.438 228.267C-108.232 317.456 107.537 350.239 212.34 236.813C224.867 223.255 235.809 207.608 244.731 189.719C305.112 68.6435 424.741 74.0318 482.407 116.81C496.862 124.921 506.392 133.04 514.668 144.057L513.021 -7.44644L-182.918 0.116943Z" fill="#86C7D3"/>
<path d="M244.731 189.719C235.809 207.608 224.867 223.255 212.34 236.813C212.34 236.813 331.439 150.547 400.762 123.322C447.004 105.161 482.407 116.81 482.407 116.81C424.741 74.0318 305.112 68.6435 244.731 189.719Z" fill="#C6D87A"/>
</g>
</svg>
