<svg width="605" height="595" viewBox="0 0 605 595" fill="none" xmlns="http://www.w3.org/2000/svg">
<mask id="mask0_1309_951" style="mask-type:alpha" maskUnits="userSpaceOnUse" x="65" y="92" width="474" height="411">
<rect x="176.096" y="83.6599" width="409.37" height="280.77" rx="25.9551" transform="rotate(25.0132 176.096 83.6599)" fill="#C6D87A"/>
</mask>
<g mask="url(#mask0_1309_951)">
<rect x="125.911" y="103.313" width="615.231" height="329.245" transform="rotate(25.0132 125.911 103.313)" fill="#F0B863"/>
<path fill-rule="evenodd" clip-rule="evenodd" d="M109.006 -119.037L-37.6949 55.7131C-40.9842 170.42 101.405 335.817 254.805 317.995C273.141 315.865 291.634 311.117 310.055 303.351C434.727 250.795 522 332.792 537.901 402.81C543.588 418.379 545.532 430.747 544.638 444.496L642.055 328.454L109.006 -119.037Z" fill="#86C7D3"/>
<path d="M310.055 303.351C291.634 311.117 273.141 315.865 254.805 317.995C254.805 317.995 401.366 330.094 471.703 354.58C518.621 370.914 537.901 402.81 537.901 402.81C522 332.792 434.727 250.795 310.055 303.351Z" fill="#C6D87A"/>
</g>
</svg>
