<svg id="Layer_1" data-name="Layer 1" xmlns="http://www.w3.org/2000/svg" viewBox="0 0 74 66"><defs><style>.cls-1{fill:#86c7d3;}.cls-2{fill:#c6d87a;}.cls-3{fill:#f0b863;}</style></defs><path class="cls-1" d="M64,16.19c-9.06-.88-19.86,3.18-25.5,16.62a30.26,30.26,0,0,1-4.38,7.4l-.05,0c-5.7,7-14.15,10.93-23,12.32L2.65,28.8,2,26.93a3.93,3.93,0,0,1,2.4-5L55.49,4a3.93,3.93,0,0,1,5,2.41l.66,1.86Z"/><path class="cls-2" d="M65.25,19.83a22.27,22.27,0,0,0-3.84,1.4c-9.9,4.65-26.3,18.14-27.32,19a30.26,30.26,0,0,0,4.38-7.4C44.11,19.37,54.91,15.31,64,16.19Z"/><path class="cls-3" d="M69.6,44.09l-51.09,18a3.94,3.94,0,0,1-5-2.41L11,52.57c8.89-1.39,17.34-5.27,23-12.32l.05,0c1-.84,17.42-14.33,27.32-19a22.27,22.27,0,0,1,3.84-1.4L72,39.07A3.94,3.94,0,0,1,69.6,44.09Z"/></svg>